<svg xmlns="http://www.w3.org/2000/svg" width="11.988" height="12.54" viewBox="0 0 11.988 12.54">
  <g id="数据管理">
    <g id="ant-design">
      <rect id="矩形" width="11.988" height="11.988" transform="translate(0 0)" fill="currentColor" opacity="0"/>
      <path id="数据源1" d="M12.98,9.539l.717.43a.3.3,0,0,1,0,.512l-5.233,3.14a.6.6,0,0,1-.614,0l-5.233-3.14a.3.3,0,0,1,0-.512l.717-.43,4.823,2.894Zm0-2.8.717.43a.3.3,0,0,1,0,.512L8.157,11,2.617,7.677a.3.3,0,0,1,0-.512l.717-.43L8.157,9.629ZM8.464,1.251,13.7,4.391a.3.3,0,0,1,0,.512L8.157,8.227,2.617,4.9a.3.3,0,0,1,0-.512L7.85,1.251A.6.6,0,0,1,8.464,1.251ZM8.157,2.458,4.51,4.647,8.157,6.835,11.8,4.647Z" transform="translate(-2.163 -1.166)" fill="currentColor"/>
    </g>
  </g>
</svg>
