<svg xmlns="http://www.w3.org/2000/svg" width="11.998" height="11.988" viewBox="0 0 11.998 11.988">
  <g id="设备监控">
    <rect id="矩形" width="11.988" height="11.988" fill="#fff" opacity="0"/>
    <path id="监控" d="M9.726,6.836l2.843-1.99A.273.273,0,0,1,13,5.069v6.588a.273.273,0,0,1-.429.223L9.726,9.89v2.29a.545.545,0,0,1-.545.545H1.545A.545.545,0,0,1,1,12.18V4.545A.545.545,0,0,1,1.545,4H9.18a.545.545,0,0,1,.545.545Zm0,1.723,2.181,1.527V6.64L9.726,8.167ZM2.091,5.091v6.544H8.635V5.091ZM3.181,6.181H4.272V7.272H3.181Z" transform="translate(-1 -2.364)" fill="currentColor"/>
  </g>
</svg>
