<svg xmlns="http://www.w3.org/2000/svg" width="11.988" height="11.988" viewBox="0 0 11.988 11.988">
  <g id="健康管理">
    <g id="ant-design">
      <rect id="矩形" width="11.988" height="11.988" transform="translate(0 0)" fill="#fff" opacity="0"/>
      <path id="健康管理-2" data-name="健康管理" d="M7.9,1l4.478,1a.545.545,0,0,1,.427.532V7.969a3.27,3.27,0,0,1-1.456,2.72L7.9,12.988l-3.448-2.3A3.27,3.27,0,0,1,3,7.969V2.527A.545.545,0,0,1,3.427,2Zm0,1.116L4.09,2.964v5A2.18,2.18,0,0,0,5.06,9.783l2.844,1.9,2.844-1.9a2.18,2.18,0,0,0,.971-1.814v-5Zm2.426,2.819.771.771L7.633,9.174,5.321,6.862l.771-.771L7.633,7.632Z" transform="translate(-1.91 -1)" fill="currentColor"/>
    </g>
  </g>
</svg>
