<svg xmlns="http://www.w3.org/2000/svg" width="12.068" height="12.055" viewBox="0 0 12.068 12.055">
  <g id="报表管理">
    <g id="ant-design">
      <rect id="矩形" width="11.988" height="11.988" transform="translate(0 0.066)" fill="#fff" opacity="0"/>
      <path id="报表管理-2" data-name="报表管理" d="M12.246,14.055H3.808A1.808,1.808,0,0,1,2,12.246V2.6A.6.6,0,0,1,2.6,2h8.438a.6.6,0,0,1,.6.6V9.836h2.411v2.411A1.808,1.808,0,0,1,12.246,14.055Zm-.6-3.014v1.205a.6.6,0,0,0,1.205,0V11.041Zm-1.205,1.808V3.205H3.205v9.041a.6.6,0,0,0,.6.6ZM4.411,5.014H9.233V6.219H4.411Zm0,2.411H9.233V8.63H4.411Zm0,2.411H7.425v1.205H4.411Z" transform="translate(-1.987 -2)" fill="currentColor"/>
    </g>
  </g>
</svg>
